<?xml version="1.0" encoding="iso-8859-1"?>
<!-- Generator: Adobe Illustrator 16.0.0, SVG Export Plug-In . SVG Version: 6.00 Build 0)  -->
<!DOCTYPE svg PUBLIC "-//W3C//DTD SVG 1.1//EN" "http://www.w3.org/Graphics/SVG/1.1/DTD/svg11.dtd">
<svg version="1.1" fill="#2be4ac" font-weigh="lighter" id="Capa_1" xmlns="http://www.w3.org/2000/svg" xmlns:xlink="http://www.w3.org/1999/xlink" x="0px" y="0px"
	 width="24.364px" height="31.364px" viewBox="0 0 31.364 31.364" style="enable-background:new 0 0 31.364 31.364;"
	 xml:space="preserve">
<g>
	<g>
		<path d="M30.352,18.781h-8.607c-0.557,0-1.006,0.479-1.006,1.037v6.716c0,0.557,0.451,1.006,1.006,1.006h3.244v1.16h-1.225
			c-0.504,0-0.9,0.385-0.9,0.891v0.59h5.988v-0.59c0-0.506-0.392-0.891-0.896-0.891h-1.101v-1.16h3.494
			c0.558,0,1.015-0.449,1.015-1.006v-6.716C31.365,19.262,30.908,18.781,30.352,18.781z M29.885,25.994h-7.666v-5.667h7.666V25.994z
			"/>
		<path d="M6.187,19.426H0.721C0.343,19.426,0,19.746,0,20.125v9.566c0,0.379,0.343,0.682,0.721,0.682h0.018H6.17h0.017
			c0.379,0,0.705-0.303,0.705-0.682v-9.566C6.891,19.746,6.566,19.426,6.187,19.426z M5.538,27.602H1.417v-6.825h4.122L5.538,27.602
			L5.538,27.602z"/>
		<circle cx="13.741" cy="5.009" r="4.018"/>
		<path d="M11.979,14.57c0-0.375,0.104-0.727,0.284-1.025l-1.75-2.411c-0.903,0.62-1.992,1.786-2.882,3.718h4.349L11.979,14.57
			L11.979,14.57z"/>
		<path d="M15.443,13.215c0.328,0.357,0.529,0.833,0.529,1.355v0.281h3.863c-0.889-1.932-1.979-3.098-2.881-3.718L15.443,13.215z"/>
		<path d="M16.131,11.434c0.116-0.086,0.163-0.22,0.163-0.361V9.875c0-0.149-0.057-0.291-0.18-0.374
			c-0.129-0.083-0.267-0.098-0.404-0.039l-0.95,0.398c-0.198-0.336-0.557-0.563-0.973-0.563c-0.415,0-0.773,0.227-0.969,0.557
			l-0.955-0.407c-0.136-0.061-0.313-0.045-0.438,0.037c-0.127,0.085-0.218,0.226-0.218,0.377v1.187c0,0.143,0.083,0.277,0.199,0.361
			c0.114,0.086,0.271,0.11,0.408,0.069c0.373-0.114,0.838-0.254,1.103-0.336c0.206,0.25,0.518,0.412,0.87,0.412
			c0.336,0,0.639-0.151,0.847-0.389c0.271,0.081,0.739,0.226,1.122,0.337C15.889,11.544,16.02,11.519,16.131,11.434z"/>
		<path d="M19.796,24.094l-2.653-2.111c0.158-0.396,0.258-0.826,0.258-1.278c0-1.538-1.041-2.841-2.394-3.28v-2.853
			c0-0.571-0.46-1.033-1.03-1.033s-1.03,0.462-1.03,1.033v2.853c-1.417,0.438-2.418,1.74-2.418,3.28
			c0,0.427,0.071,0.834,0.212,1.209L7.89,24.08c-0.454,0.347-0.543,0.992-0.199,1.446c0.204,0.267,0.511,0.406,0.822,0.406
			c0.218,0,0.437-0.068,0.624-0.213l2.872-2.185c0.552,0.38,1.222,0.604,1.943,0.604c0.695,0,1.342-0.209,1.883-0.563l2.677,2.131
			c0.19,0.151,0.418,0.226,0.643,0.226c0.305,0,0.604-0.133,0.811-0.39C20.316,25.096,20.242,24.449,19.796,24.094z"/>
	</g>
</g>
<g>
</g>
<g>
</g>
<g>
</g>
<g>
</g>
<g>
</g>
<g>
</g>
<g>
</g>
<g>
</g>
<g>
</g>
<g>
</g>
<g>
</g>
<g>
</g>
<g>
</g>
<g>
</g>
<g>
</g>
</svg>
